999
FreeCAD v0.20 29410 (Git)
  0
SECTION
  2
HEADER
  9
$ACADVER
  1
AC1014
  9
$ACADMAINTVER
 70
     9
  9
$DWGCODEPAGE
  3
ANSI_1252
  9
$TEXTSTYLE
  7
STANDARD
  9
$DIMSTYLE
  2
STANDARD
  9
$DIMTXSTY
  7
STANDARD
  9
$CMLSTYLE
  2
STANDARD
  9
$LUNITS
 70
2
  9
$INSUNITS
 70
4
  9
$PEXTMAX
 10
50
 20
50
 30
50
  9
$PEXTMIN
 10
0
 20
0
 30
0
  9
$HANDSEED
  5
FFFF
  0
ENDSEC
  0
SECTION
  2
CLASSES
  0
CLASS
  1
ACDBDICTIONARYWDFLT
  2
AcDbDictionaryWithDefault
  3
ObjectDBX Classes
 90
        0
280
     0
281
     0
  0
CLASS
  1
XRECORD
  2
AcDbXrecord
  3
ObjectDBX Classes
 90
        0
280
     0
281
     0
  0
CLASS
  1
LWPOLYLINE
  2
AcDbPolyline
  3
ObjectDBX Classes
 90
        0
280
     0
281
     1
  0
ENDSEC
  0
SECTION
  2
TABLES
  0
TABLE
  2
VPORT
  5
20
330
0
100
AcDbSymbolTable
 70
     1
  0
VPORT
  5
21
330
20
100
AcDbSymbolTableRecord
100
AcDbViewportTableRecord
  2
*ACTIVE
 70
     0
  0
ENDTAB
  0
TABLE
  2
LTYPE
  5
22
330
0
100
AcDbSymbolTable
 70
     1
  0
LTYPE
  5
23
330
21
100
AcDbSymbolTableRecord
100
AcDbLinetypeTableRecord
  2
BYBLOCK
 70
     0
  3

 72
    65
 73
     0
 40
0.0
  0
LTYPE
  5
24
330
21
100
AcDbSymbolTableRecord
100
AcDbLinetypeTableRecord
  2
BYLAYER
 70
     0
  3

 72
    65
 73
     0
 40
0.0
  0
LTYPE
  5
25
330
21
100
AcDbSymbolTableRecord
100
AcDbLinetypeTableRecord
  2
CONTINUOUS
 70
     0
  3
Solid line
 72
    65
 73
     0
 40
0.0
  0
ENDTAB
  0
TABLE
  2
LAYER
  5
B4C
330
0
100
AcDbSymbolTable
 70
3
  0
LAYER
  5
B4D
330
B4C
100
AcDbSymbolTableRecord
100
AcDbLayerTableRecord
  2
0
 70
   0
 62
   7
  6
CONTINUOUS
  0
LAYER
  5
B4E
330
B4C
100
AcDbSymbolTableRecord
100
AcDbLayerTableRecord
  2
none
 70
    0
 62
    7
  6
CONTINUOUS
  0
LAYER
  5
B4F
330
B4C
100
AcDbSymbolTableRecord
100
AcDbLayerTableRecord
  2
Body
 70
    0
 62
    7
  6
CONTINUOUS
  0
ENDTAB
  0
TABLE
  2
STYLE
  5
70
330
0
100
AcDbSymbolTable
 70
     2
  0
STYLE
  5
71
330
70
100
AcDbSymbolTableRecord
100
AcDbTextStyleTableRecord
  2
STANDARD
 70
     0
 40
0.0
 41
1.0
 50
0.0
 71
     0
 42
2.5
  3
arial.ttf
  4

  0
STYLE
  5
72
330
70
100
AcDbSymbolTableRecord
100
AcDbTextStyleTableRecord
  2
ANNOTATIVE
 70
     0
 40
0.0
 41
1.0
 50
0.0
 71
     0
 42
2.5
  3
arial.ttf
  4

  0
ENDTAB
  0
TABLE
  2
VIEW
  5
73
330
0
100
AcDbSymbolTable
 70
     0
  0
ENDTAB
  0
TABLE
  2
UCS
  5
74
330
0
100
AcDbSymbolTable
 70
     0
  0
ENDTAB
  0
TABLE
  2
APPID
  5
75
330
0
100
AcDbSymbolTable
 70
     2
  0
APPID
  5
76
330
75
100
AcDbSymbolTableRecord
100
AcDbRegAppTableRecord
  2
ACAD
 70
     0
  0
APPID
  5
77
330
75
100
AcDbSymbolTableRecord
100
AcDbRegAppTableRecord
  2
ACADANNOTATIVE
 70
     0
  0
ENDTAB
  0
TABLE
  2
DIMSTYLE
  5
78
330
0
100
AcDbSymbolTable
 70
     2
  0
DIMSTYLE
105
79
330
78
100
AcDbSymbolTableRecord
100
AcDbDimStyleTableRecord
  2
STANDARD
 70
     0
  3

  4

  5

  6

  7

 40
0.0
 41
2.5
 42
0.625
 43
3.75
 44
1.25
 45
0.0
 46
0.0
 47
0.0
 48
0.0
140
2.5
141
2.5
142
0.0
143
0.03937007874016
144
1.0
145
0.0
146
1.0
147
0.625
 71
     0
 72
     0
 73
     0
 74
     0
 75
     0
 76
     0
 77
     1
 78
     8
170
     0
171
     3
172
     1
173
     0
174
     0
175
     0
176
     0
177
     0
178
     0
270
     2
271
     2
272
     2
273
     2
274
     3
340
71
275
     0
280
     0
281
     0
282
     0
283
     0
284
     8
285
     0
286
     0
287
     3
288
     0
  0
ENDTAB
  0
TABLE
  2
BLOCK_RECORD
  5
A01
330
0
100
AcDbSymbolTable
  70
5
  0
BLOCK_RECORD
  5
A02
330
A01
100
AcDbSymbolTableRecord
100
AcDbBlockTableRecord
  2
*MODEL_SPACE
  0
BLOCK_RECORD
  5
A03
330
A01
100
AcDbSymbolTableRecord
100
AcDbBlockTableRecord
  2
*PAPER_SPACE
  0
ENDTAB
  0
ENDSEC
  0
SECTION
  2
BLOCKS
  0
BLOCK
  5
A04
330
A02
100
AcDbEntity
  8
0
100
AcDbBlockBegin
  2
*MODEL_SPACE
 70
   0
 10
0
 20
0
 30
0
  3
*MODEL_SPACE
  1
 
  0
ENDBLK
  5
A05
330
A02
100
AcDbEntity
  8
0
100
AcDbBlockEnd
  0
BLOCK
  5
A06
330
A03
100
AcDbEntity
 67
1
  8
0
100
AcDbBlockBegin
  2
*PAPER_SPACE
 70
   0
 10
0
 20
0
 30
0
  3
*PAPER_SPACE
  1
 
  0
ENDBLK
  5
A07
330
A03
100
AcDbEntity
 67
    1
  8
0
100
AcDbBlockEnd
  0
ENDSEC
  0
SECTION
  2
ENTITIES
  0
LINE
  5
A08
330
A02
100
AcDbEntity
  8
Body
100
AcDbLine
 10
111.5
 20
-69
 30
5
 11
-111.5
 21
-69
 31
5
  0
SPLINE
  5
A09
330
A02
100
AcDbEntity
  8
Body
100
AcDbSpline
210
0
220
0
230
1
 70
8
 71
3
 72
17
 73
13
 74
0
 40
5.24711
 40
5.24711
 40
5.24711
 40
5.24711
 40
5.873
 40
5.873
 40
5.873
 40
10.2875
 40
10.2875
 40
10.2875
 40
14.7021
 40
14.7021
 40
14.7021
 40
23.5311
 40
23.5311
 40
23.5311
 40
23.5311
 10
111.5
 20
-50.5352
 30
5
 10
111.5
 20
-50.7835
 30
5
 10
111.5
 20
-50.9889
 30
5
 10
111.5
 20
-51.2019
 30
5
 10
111.5
 20
-52.6877
 30
5
 10
111.5
 20
-54.1649
 30
5
 10
111.5
 20
-55.6504
 30
5
 10
111.5
 20
-57.1339
 30
5
 10
111.5
 20
-58.6174
 30
5
 10
111.5
 20
-60.1008
 30
5
 10
111.5
 20
-63.0672
 30
5
 10
111.5
 20
-66.0336
 30
5
 10
111.5
 20
-69
 30
5
  0
SPLINE
  5
A0A
330
A02
100
AcDbEntity
  8
Body
100
AcDbSpline
210
0
220
0
230
1
 70
8
 71
3
 72
17
 73
13
 74
0
 40
5.5708
 40
5.5708
 40
5.5708
 40
5.5708
 40
14.3999
 40
14.3999
 40
14.3999
 40
18.8144
 40
18.8144
 40
18.8144
 40
23.2289
 40
23.2289
 40
23.2289
 40
23.8548
 40
23.8548
 40
23.8548
 40
23.8548
 10
-111.5
 20
-69
 30
5
 10
-111.5
 20
-66.0336
 30
5
 10
-111.5
 20
-63.0672
 30
5
 10
-111.5
 20
-60.1008
 30
5
 10
-111.5
 20
-58.6174
 30
5
 10
-111.5
 20
-57.1339
 30
5
 10
-111.5
 20
-55.6504
 30
5
 10
-111.5
 20
-54.1649
 30
5
 10
-111.5
 20
-52.6877
 30
5
 10
-111.5
 20
-51.2019
 30
5
 10
-111.5
 20
-50.9889
 30
5
 10
-111.5
 20
-50.7835
 30
5
 10
-111.5
 20
-50.5352
 30
5
  0
LINE
  5
A0B
330
A02
100
AcDbEntity
  8
Body
100
AcDbLine
 10
81.9453
 20
-30.8321
 30
5
 11
111.5
 21
-50.5352
 31
5
  0
LINE
  5
A0C
330
A02
100
AcDbEntity
  8
Body
100
AcDbLine
 10
-111.5
 20
-50.5352
 30
5
 11
-82.5
 21
-31.2019
 31
5
  0
LINE
  5
A0D
330
A02
100
AcDbEntity
  8
Body
100
AcDbLine
 10
81.5
 20
-30.5352
 30
5
 11
81.9453
 21
-30.8321
 31
5
  0
LINE
  5
A0E
330
A02
100
AcDbEntity
  8
Body
100
AcDbLine
 10
-82.5
 20
-31.2019
 30
5
 11
-81.5
 21
-30.5352
 31
5
  0
LINE
  5
A0F
330
A02
100
AcDbEntity
  8
Body
100
AcDbLine
 10
81.5
 20
-29.3333
 30
5
 11
81.5
 21
-30.5352
 31
5
  0
LINE
  5
A10
330
A02
100
AcDbEntity
  8
Body
100
AcDbLine
 10
-81.5
 20
-30.5352
 30
5
 11
-81.5
 21
-30
 31
5
  0
LINE
  5
A11
330
A02
100
AcDbEntity
  8
Body
100
AcDbLine
 10
81.5
 20
30
 30
5
 11
81.5
 21
-29.3333
 31
5
  0
LINE
  5
A12
330
A02
100
AcDbEntity
  8
Body
100
AcDbLine
 10
-81.5
 20
-30
 30
5
 11
-81.5
 21
29.3333
 31
5
  0
LINE
  5
A13
330
A02
100
AcDbEntity
  8
Body
100
AcDbLine
 10
81.5
 20
30.5352
 30
5
 11
81.5
 21
30
 31
5
  0
LINE
  5
A14
330
A02
100
AcDbEntity
  8
Body
100
AcDbLine
 10
-81.5
 20
29.3333
 30
5
 11
-81.5
 21
30.5352
 31
5
  0
LINE
  5
A15
330
A02
100
AcDbEntity
  8
Body
100
AcDbLine
 10
82.5
 20
31.2019
 30
5
 11
81.5
 21
30.5352
 31
5
  0
LINE
  5
A16
330
A02
100
AcDbEntity
  8
Body
100
AcDbLine
 10
-81.5
 20
30.5352
 30
5
 11
-81.9453
 21
30.8321
 31
5
  0
LINE
  5
A17
330
A02
100
AcDbEntity
  8
Body
100
AcDbLine
 10
111.5
 20
50.5352
 30
5
 11
82.5
 21
31.2019
 31
5
  0
LINE
  5
A18
330
A02
100
AcDbEntity
  8
Body
100
AcDbLine
 10
-81.9453
 20
30.8321
 30
5
 11
-111.5
 21
50.5352
 31
5
  0
SPLINE
  5
A19
330
A02
100
AcDbEntity
  8
Body
100
AcDbSpline
210
0
220
0
230
1
 70
8
 71
3
 72
8
 73
4
 74
0
 40
23.3689
 40
23.3689
 40
23.3689
 40
23.3689
 40
23.9477
 40
23.9477
 40
23.9477
 40
23.9477
 10
111.5
 20
51.2019
 30
5
 10
111.5
 20
50.9909
 30
5
 10
111.5
 20
50.784
 30
5
 10
111.5
 20
50.5352
 30
5
  0
SPLINE
  5
A1A
330
A02
100
AcDbEntity
  8
Body
100
AcDbSpline
210
0
220
0
230
1
 70
8
 71
3
 72
8
 73
4
 74
0
 40
5.15424
 40
5.15424
 40
5.15424
 40
5.15424
 40
5.73296
 40
5.73296
 40
5.73296
 40
5.73296
 10
-111.5
 20
50.5352
 30
5
 10
-111.5
 20
50.784
 30
5
 10
-111.5
 20
50.9909
 30
5
 10
-111.5
 20
51.2019
 30
5
  0
LINE
  5
A1B
330
A02
100
AcDbEntity
  8
Body
100
AcDbLine
 10
111.5
 20
69
 30
5
 11
111.5
 21
51.2019
 31
5
  0
LINE
  5
A1C
330
A02
100
AcDbEntity
  8
Body
100
AcDbLine
 10
-111.5
 20
51.2019
 30
5
 11
-111.5
 21
69
 31
5
  0
LINE
  5
A1D
330
A02
100
AcDbEntity
  8
Body
100
AcDbLine
 10
-111.5
 20
69
 30
5
 11
111.5
 21
69
 31
5
  0
CIRCLE
  5
A1E
330
A02
100
AcDbEntity
  8
Body
100
AcDbCircle
 10
-75
 20
-65
 40
2
  0
CIRCLE
  5
A1F
330
A02
100
AcDbEntity
  8
Body
100
AcDbCircle
 10
-75
 20
-53
 40
2
  0
CIRCLE
  5
A20
330
A02
100
AcDbEntity
  8
Body
100
AcDbCircle
 10
-45
 20
-65
 40
2
  0
CIRCLE
  5
A21
330
A02
100
AcDbEntity
  8
Body
100
AcDbCircle
 10
-45
 20
-53
 40
2
  0
CIRCLE
  5
A22
330
A02
100
AcDbEntity
  8
Body
100
AcDbCircle
 10
45
 20
-65
 40
2
  0
CIRCLE
  5
A23
330
A02
100
AcDbEntity
  8
Body
100
AcDbCircle
 10
45
 20
-53
 40
2
  0
CIRCLE
  5
A24
330
A02
100
AcDbEntity
  8
Body
100
AcDbCircle
 10
75
 20
-65
 40
2
  0
CIRCLE
  5
A25
330
A02
100
AcDbEntity
  8
Body
100
AcDbCircle
 10
75
 20
-53
 40
2
  0
CIRCLE
  5
A26
330
A02
100
AcDbEntity
  8
Body
100
AcDbCircle
 10
-75
 20
53
 40
2
  0
CIRCLE
  5
A27
330
A02
100
AcDbEntity
  8
Body
100
AcDbCircle
 10
-75
 20
65
 40
2
  0
CIRCLE
  5
A28
330
A02
100
AcDbEntity
  8
Body
100
AcDbCircle
 10
-45
 20
53
 40
2
  0
CIRCLE
  5
A29
330
A02
100
AcDbEntity
  8
Body
100
AcDbCircle
 10
-45
 20
65
 40
2
  0
CIRCLE
  5
A2A
330
A02
100
AcDbEntity
  8
Body
100
AcDbCircle
 10
45
 20
53
 40
2
  0
CIRCLE
  5
A2B
330
A02
100
AcDbEntity
  8
Body
100
AcDbCircle
 10
45
 20
65
 40
2
  0
CIRCLE
  5
A2C
330
A02
100
AcDbEntity
  8
Body
100
AcDbCircle
 10
75
 20
53
 40
2
  0
CIRCLE
  5
A2D
330
A02
100
AcDbEntity
  8
Body
100
AcDbCircle
 10
75
 20
65
 40
2
  0
LINE
  5
A2E
330
A02
100
AcDbEntity
  8
Body
100
AcDbLine
 10
111.5
 20
-69
 30
5
 11
-111.5
 21
-69
 31
5
  0
ARC
  5
A2F
330
A02
100
AcDbEntity
  8
Body
100
AcDbCircle
 10
111.5
 20
-69
 30
4
 40
0
100
AcDbArc
 50
-90
 51
0
  0
ARC
  5
A30
330
A02
100
AcDbEntity
  8
Body
100
AcDbCircle
 10
-111.5
 20
-69
 30
4
 40
1
100
AcDbArc
 50
0
 51
-90
  0
LINE
  5
A31
330
A02
100
AcDbEntity
  8
Body
100
AcDbLine
 10
111.5
 20
-70
 30
4
 11
-111.5
 21
-70
 31
4
  0
SPLINE
  5
A32
330
A02
100
AcDbEntity
  8
Body
100
AcDbSpline
210
0
220
0
230
1
 70
8
 71
3
 72
11
 73
7
 74
0
 40
0
 40
0
 40
0
 40
0
 40
0.623556
 40
0.623556
 40
0.623556
 40
1.24711
 40
1.24711
 40
1.24711
 40
1.24711
 10
111.5
 20
-50.5352
 30
5
 10
111.734
 20
-50.5338
 30
5.00291
 10
112.012
 20
-50.5753
 30
4.915
 10
112.207
 20
-50.6602
 30
4.73512
 10
112.406
 20
-50.7436
 30
4.55835
 10
112.503
 20
-50.8619
 30
4.30771
 10
112.5
 20
-50.9619
 30
4.09564
  0
SPLINE
  5
A33
330
A02
100
AcDbEntity
  8
Body
100
AcDbSpline
210
0
220
0
230
1
 70
8
 71
3
 72
17
 73
13
 74
0
 40
5.24711
 40
5.24711
 40
5.24711
 40
5.24711
 40
5.873
 40
5.873
 40
5.873
 40
10.2875
 40
10.2875
 40
10.2875
 40
14.7021
 40
14.7021
 40
14.7021
 40
23.5311
 40
23.5311
 40
23.5311
 40
23.5311
 10
111.5
 20
-50.5352
 30
5
 10
111.5
 20
-50.7835
 30
5
 10
111.5
 20
-50.9889
 30
5
 10
111.5
 20
-51.2019
 30
5
 10
111.5
 20
-52.6877
 30
5
 10
111.5
 20
-54.1649
 30
5
 10
111.5
 20
-55.6504
 30
5
 10
111.5
 20
-57.1339
 30
5
 10
111.5
 20
-58.6174
 30
5
 10
111.5
 20
-60.1008
 30
5
 10
111.5
 20
-63.0672
 30
5
 10
111.5
 20
-66.0336
 30
5
 10
111.5
 20
-69
 30
5
  0
SPLINE
  5
A34
330
A02
100
AcDbEntity
  8
Body
100
AcDbSpline
210
0
220
0
230
1
 70
8
 71
3
 72
20
 73
16
 74
0
 40
5.24711
 40
5.24711
 40
5.24711
 40
5.24711
 40
5.56006
 40
5.56006
 40
5.56006
 40
5.873
 40
5.873
 40
5.873
 40
10.2875
 40
10.2875
 40
10.2875
 40
14.7021
 40
14.7021
 40
14.7021
 40
23.5311
 40
23.5311
 40
23.5311
 40
23.5311
 10
112.5
 20
-50.9619
 30
4.09564
 10
112.5
 20
-51.013
 30
4.06068
 10
112.5
 20
-51.0485
 30
4.0362
 10
112.5
 20
-51.0897
 30
4.0219
 10
112.5
 20
-51.132
 30
4.00747
 10
112.5
 20
-51.1776
 30
4.00329
 10
112.5
 20
-51.2755
 30
4.00272
 10
112.5
 20
-52.6676
 30
3.9976
 10
112.5
 20
-54.1537
 30
4.00105
 10
112.5
 20
-55.6381
 30
4.00008
 10
112.5
 20
-57.1259
 30
4.00003
 10
112.5
 20
-58.6129
 30
4
 10
112.5
 20
-60.0988
 30
4
 10
112.5
 20
-63.0673
 30
4
 10
112.5
 20
-66.0344
 30
4
 10
112.5
 20
-69
 30
4
  0
SPLINE
  5
A35
330
A02
100
AcDbEntity
  8
Body
100
AcDbSpline
210
0
220
0
230
1
 70
8
 71
3
 72
11
 73
7
 74
0
 40
0
 40
0
 40
0
 40
0
 40
9.142
 40
9.142
 40
9.142
 40
18.284
 40
18.284
 40
18.284
 40
18.284
 10
111.5
 20
-69
 30
5
 10
111.734
 20
-69
 30
5.00321
 10
112.012
 20
-69
 30
4.90601
 10
112.207
 20
-69
 30
4.70711
 10
112.406
 20
-69
 30
4.51165
 10
112.503
 20
-69
 30
4.23449
 10
112.5
 20
-69
 30
4
  0
ARC
  5
A36
330
A02
100
AcDbEntity
  8
Body
100
AcDbCircle
 10
-111.5
 20
-69
 30
4
 40
0
100
AcDbArc
 50
180
 51
0
  0
SPLINE
  5
A37
330
A02
100
AcDbEntity
  8
Body
100
AcDbSpline
210
0
220
0
230
1
 70
8
 71
3
 72
17
 73
13
 74
0
 40
5.5708
 40
5.5708
 40
5.5708
 40
5.5708
 40
14.3999
 40
14.3999
 40
14.3999
 40
18.8144
 40
18.8144
 40
18.8144
 40
23.2289
 40
23.2289
 40
23.2289
 40
23.8548
 40
23.8548
 40
23.8548
 40
23.8548
 10
-111.5
 20
-69
 30
5
 10
-111.5
 20
-66.0336
 30
5
 10
-111.5
 20
-63.0672
 30
5
 10
-111.5
 20
-60.1008
 30
5
 10
-111.5
 20
-58.6174
 30
5
 10
-111.5
 20
-57.1339
 30
5
 10
-111.5
 20
-55.6504
 30
5
 10
-111.5
 20
-54.1649
 30
5
 10
-111.5
 20
-52.6877
 30
5
 10
-111.5
 20
-51.2019
 30
5
 10
-111.5
 20
-50.9889
 30
5
 10
-111.5
 20
-50.7835
 30
5
 10
-111.5
 20
-50.5352
 30
5
  0
SPLINE
  5
A38
330
A02
100
AcDbEntity
  8
Body
100
AcDbSpline
210
0
220
0
230
1
 70
8
 71
3
 72
20
 73
16
 74
0
 40
5.5708
 40
5.5708
 40
5.5708
 40
5.5708
 40
14.3999
 40
14.3999
 40
14.3999
 40
18.8144
 40
18.8144
 40
18.8144
 40
23.2289
 40
23.2289
 40
23.2289
 40
23.5419
 40
23.5419
 40
23.5419
 40
23.8548
 40
23.8548
 40
23.8548
 40
23.8548
 10
-112.5
 20
-69
 30
4
 10
-112.5
 20
-66.0344
 30
4
 10
-112.5
 20
-63.0673
 30
4
 10
-112.5
 20
-60.0988
 30
4
 10
-112.5
 20
-58.6129
 30
4
 10
-112.5
 20
-57.1259
 30
4.00003
 10
-112.5
 20
-55.6381
 30
4.00008
 10
-112.5
 20
-54.1537
 30
4.00105
 10
-112.5
 20
-52.6676
 30
3.9976
 10
-112.5
 20
-51.2755
 30
4.00272
 10
-112.5
 20
-51.1776
 30
4.00329
 10
-112.5
 20
-51.132
 30
4.00747
 10
-112.5
 20
-51.0897
 30
4.0219
 10
-112.5
 20
-51.0485
 30
4.0362
 10
-112.5
 20
-51.013
 30
4.06068
 10
-112.5
 20
-50.9619
 30
4.09564
  0
SPLINE
  5
A39
330
A02
100
AcDbEntity
  8
Body
100
AcDbSpline
210
0
220
0
230
1
 70
8
 71
3
 72
11
 73
7
 74
0
 40
0
 40
0
 40
0
 40
0
 40
9.142
 40
9.142
 40
9.142
 40
18.284
 40
18.284
 40
18.284
 40
18.284
 10
-111.5
 20
-50.5352
 30
5
 10
-111.734
 20
-50.5338
 30
5.00291
 10
-112.012
 20
-50.5753
 30
4.915
 10
-112.207
 20
-50.6602
 30
4.73512
 10
-112.406
 20
-50.7436
 30
4.55835
 10
-112.503
 20
-50.8619
 30
4.30771
 10
-112.5
 20
-50.9619
 30
4.09564
  0
LINE
  5
A3A
330
A02
100
AcDbEntity
  8
Body
100
AcDbLine
 10
81.9453
 20
-30.8321
 30
5
 11
111.5
 21
-50.5352
 31
5
  0
SPLINE
  5
A3B
330
A02
100
AcDbEntity
  8
Body
100
AcDbSpline
210
0
220
0
230
1
 70
8
 71
3
 72
11
 73
7
 74
0
 40
4
 40
4
 40
4
 40
4
 40
4.62356
 40
4.62356
 40
4.62356
 40
5.24711
 40
5.24711
 40
5.24711
 40
5.24711
 10
112.055
 20
-49.7031
 30
4
 10
112.055
 20
-49.703
 30
4.23594
 10
112.012
 20
-49.7753
 30
4.47481
 10
111.922
 20
-49.92
 30
4.66618
 10
111.831
 20
-50.0629
 30
4.85598
 10
111.692
 20
-50.2845
 30
4.99907
 10
111.5
 20
-50.5352
 30
5
  0
ARC
  5
A3C
330
A02
100
AcDbEntity
  8
Body
100
AcDbCircle
 10
81.9453
 20
-30.8321
 30
4
 40
0
100
AcDbArc
 50
56.3099
 51
0
  0
LINE
  5
A3D
330
A02
100
AcDbEntity
  8
Body
100
AcDbLine
 10
82.5
 20
-30
 30
4
 11
112.055
 21
-49.7031
 31
4
  0
LINE
  5
A3E
330
A02
100
AcDbEntity
  8
Body
100
AcDbLine
 10
-112.055
 20
-49.7031
 30
4
 11
-82.5
 21
-30
 31
4
  0
SPLINE
  5
A3F
330
A02
100
AcDbEntity
  8
Body
100
AcDbSpline
210
0
220
0
230
1
 70
8
 71
3
 72
11
 73
7
 74
0
 40
23.8548
 40
23.8548
 40
23.8548
 40
23.8548
 40
24.4784
 40
24.4784
 40
24.4784
 40
25.1019
 40
25.1019
 40
25.1019
 40
25.1019
 10
-111.5
 20
-50.5352
 30
5
 10
-111.692
 20
-50.2845
 30
4.99907
 10
-111.831
 20
-50.0629
 30
4.85598
 10
-111.922
 20
-49.92
 30
4.66618
 10
-112.012
 20
-49.7753
 30
4.47481
 10
-112.055
 20
-49.703
 30
4.23594
 10
-112.055
 20
-49.7031
 30
4
  0
ELLIPSE
  5
A40
330
A02
100
AcDbEntity
  8
Body
100
AcDbEllipse
 10
-81.5
 20
-30.5352
 30
4
 11
-1
 21
0.535184
 31
0
 40
0.881675
 41
-0
 42
-4.71239
  0
LINE
  5
A41
330
A02
100
AcDbEntity
  8
Body
100
AcDbLine
 10
-111.5
 20
-50.5352
 30
5
 11
-82.5
 21
-31.2019
 31
5
  0
LINE
  5
A42
330
A02
100
AcDbEntity
  8
Body
100
AcDbLine
 10
-82.5
 20
-31.2019
 30
5
 11
-81.5
 21
-30.5352
 31
5
  0
ELLIPSE
  5
A43
330
A02
100
AcDbEntity
  8
Body
100
AcDbEllipse
 10
81.5
 20
-30.5352
 30
4
 11
1
 21
0.535184
 31
0
 40
0.881675
 41
4.71239
 42
0
  0
LINE
  5
A44
330
A02
100
AcDbEntity
  8
Body
100
AcDbLine
 10
81.5
 20
-30.5352
 30
5
 11
81.9453
 21
-30.8321
 31
5
  0
ARC
  5
A45
330
A02
100
AcDbEntity
  8
Body
100
AcDbCircle
 10
81.9453
 20
-30.8321
 30
4
 40
0
100
AcDbArc
 50
56.3099
 51
0
  0
ELLIPSE
  5
A46
330
A02
100
AcDbEntity
  8
Body
100
AcDbEllipse
 10
81.5
 20
-30.5352
 30
4
 11
1
 21
0.535184
 31
0
 40
0.881675
 41
4.71239
 42
0
  0
LINE
  5
A47
330
A02
100
AcDbEntity
  8
Body
100
AcDbLine
 10
81.5
 20
-29.3333
 30
5
 11
81.5
 21
-30.5352
 31
5
  0
LINE
  5
A48
330
A02
100
AcDbEntity
  8
Body
100
AcDbLine
 10
82.5
 20
30
 30
4
 11
82.5
 21
-30
 31
4
  0
LINE
  5
A49
330
A02
100
AcDbEntity
  8
Body
100
AcDbLine
 10
81.5
 20
30
 30
5
 11
81.5
 21
-29.3333
 31
5
  0
ARC
  5
A4A
330
A02
100
AcDbEntity
  8
Body
100
AcDbCircle
 10
81.5
 20
30
 30
4
 40
0
100
AcDbArc
 50
0
 51
0
  0
ELLIPSE
  5
A4B
330
A02
100
AcDbEntity
  8
Body
100
AcDbEllipse
 10
-81.5
 20
-30.5352
 30
4
 11
-1
 21
0.535184
 31
0
 40
0.881675
 41
-0
 42
-4.71239
  0
LINE
  5
A4C
330
A02
100
AcDbEntity
  8
Body
100
AcDbLine
 10
-81.5
 20
-30.5352
 30
5
 11
-81.5
 21
-30
 31
5
  0
ARC
  5
A4D
330
A02
100
AcDbEntity
  8
Body
100
AcDbCircle
 10
-81.5
 20
-30
 30
4
 40
0
100
AcDbArc
 50
180
 51
0
  0
ELLIPSE
  5
A4E
330
A02
100
AcDbEntity
  8
Body
100
AcDbEllipse
 10
-81.5
 20
30.5352
 30
4
 11
-1
 21
-0.535184
 31
0
 40
0.881675
 41
4.71239
 42
0
  0
LINE
  5
A4F
330
A02
100
AcDbEntity
  8
Body
100
AcDbLine
 10
-81.5
 20
29.3333
 30
5
 11
-81.5
 21
30.5352
 31
5
  0
LINE
  5
A50
330
A02
100
AcDbEntity
  8
Body
100
AcDbLine
 10
-82.5
 20
-30
 30
4
 11
-82.5
 21
30
 31
4
  0
LINE
  5
A51
330
A02
100
AcDbEntity
  8
Body
100
AcDbLine
 10
-81.5
 20
-30
 30
5
 11
-81.5
 21
29.3333
 31
5
  0
ARC
  5
A52
330
A02
100
AcDbEntity
  8
Body
100
AcDbCircle
 10
-81.5
 20
-30
 30
4
 40
0
100
AcDbArc
 50
180
 51
0
  0
ELLIPSE
  5
A53
330
A02
100
AcDbEntity
  8
Body
100
AcDbEllipse
 10
81.5
 20
30.5352
 30
4
 11
1
 21
-0.535184
 31
0
 40
0.881675
 41
-0
 42
-4.71239
  0
LINE
  5
A54
330
A02
100
AcDbEntity
  8
Body
100
AcDbLine
 10
81.5
 20
30.5352
 30
5
 11
81.5
 21
30
 31
5
  0
ARC
  5
A55
330
A02
100
AcDbEntity
  8
Body
100
AcDbCircle
 10
81.5
 20
30
 30
4
 40
0
100
AcDbArc
 50
0
 51
0
  0
LINE
  5
A56
330
A02
100
AcDbEntity
  8
Body
100
AcDbLine
 10
112.055
 20
49.7031
 30
4
 11
82.5
 21
30
 31
4
  0
SPLINE
  5
A57
330
A02
100
AcDbEntity
  8
Body
100
AcDbSpline
210
0
220
0
230
1
 70
8
 71
3
 72
11
 73
7
 74
0
 40
23.9477
 40
23.9477
 40
23.9477
 40
23.9477
 40
24.5248
 40
24.5248
 40
24.5248
 40
25.1019
 40
25.1019
 40
25.1019
 40
25.1019
 10
111.5
 20
50.5352
 30
5
 10
111.693
 20
50.2843
 30
4.99888
 10
111.831
 20
50.0633
 30
4.85616
 10
111.922
 20
49.9201
 30
4.66635
 10
112.012
 20
49.7753
 30
4.47498
 10
112.055
 20
49.703
 30
4.23601
 10
112.055
 20
49.7031
 30
4
  0
ELLIPSE
  5
A58
330
A02
100
AcDbEntity
  8
Body
100
AcDbEllipse
 10
81.5
 20
30.5352
 30
4
 11
1
 21
-0.535184
 31
0
 40
0.881675
 41
-0
 42
-4.71239
  0
LINE
  5
A59
330
A02
100
AcDbEntity
  8
Body
100
AcDbLine
 10
111.5
 20
50.5352
 30
5
 11
82.5
 21
31.2019
 31
5
  0
LINE
  5
A5A
330
A02
100
AcDbEntity
  8
Body
100
AcDbLine
 10
82.5
 20
31.2019
 30
5
 11
81.5
 21
30.5352
 31
5
  0
ELLIPSE
  5
A5B
330
A02
100
AcDbEntity
  8
Body
100
AcDbEllipse
 10
-81.5
 20
30.5352
 30
4
 11
-1
 21
-0.535184
 31
0
 40
0.881675
 41
4.71239
 42
0
  0
LINE
  5
A5C
330
A02
100
AcDbEntity
  8
Body
100
AcDbLine
 10
-81.5
 20
30.5352
 30
5
 11
-81.9453
 21
30.8321
 31
5
  0
ARC
  5
A5D
330
A02
100
AcDbEntity
  8
Body
100
AcDbCircle
 10
-81.9453
 20
30.8321
 30
4
 40
0
100
AcDbArc
 50
-123.69
 51
0
  0
LINE
  5
A5E
330
A02
100
AcDbEntity
  8
Body
100
AcDbLine
 10
-81.9453
 20
30.8321
 30
5
 11
-111.5
 21
50.5352
 31
5
  0
SPLINE
  5
A5F
330
A02
100
AcDbEntity
  8
Body
100
AcDbSpline
210
0
220
0
230
1
 70
8
 71
3
 72
11
 73
7
 74
0
 40
4
 40
4
 40
4
 40
4
 40
4.57712
 40
4.57712
 40
4.57712
 40
5.15424
 40
5.15424
 40
5.15424
 40
5.15424
 10
-112.055
 20
49.7031
 30
4
 10
-112.055
 20
49.703
 30
4.23601
 10
-112.012
 20
49.7753
 30
4.47498
 10
-111.922
 20
49.9201
 30
4.66635
 10
-111.831
 20
50.0633
 30
4.85616
 10
-111.693
 20
50.2843
 30
4.99888
 10
-111.5
 20
50.5352
 30
5
  0
ARC
  5
A60
330
A02
100
AcDbEntity
  8
Body
100
AcDbCircle
 10
-81.9453
 20
30.8321
 30
4
 40
0
100
AcDbArc
 50
-123.69
 51
0
  0
LINE
  5
A61
330
A02
100
AcDbEntity
  8
Body
100
AcDbLine
 10
-82.5
 20
30
 30
4
 11
-112.055
 21
49.7031
 31
4
  0
ARC
  5
A62
330
A02
100
AcDbEntity
  8
Body
100
AcDbCircle
 10
111.5
 20
51.2019
 30
4
 40
0
100
AcDbArc
 50
0
 51
0
  0
SPLINE
  5
A63
330
A02
100
AcDbEntity
  8
Body
100
AcDbSpline
210
0
220
0
230
1
 70
8
 71
3
 72
8
 73
4
 74
0
 40
23.3689
 40
23.3689
 40
23.3689
 40
23.3689
 40
23.9477
 40
23.9477
 40
23.9477
 40
23.9477
 10
111.5
 20
51.2019
 30
5
 10
111.5
 20
50.9909
 30
5
 10
111.5
 20
50.784
 30
5
 10
111.5
 20
50.5352
 30
5
  0
SPLINE
  5
A64
330
A02
100
AcDbEntity
  8
Body
100
AcDbSpline
210
0
220
0
230
1
 70
8
 71
3
 72
8
 73
4
 74
0
 40
23.3689
 40
23.3689
 40
23.3689
 40
23.3689
 40
23.9477
 40
23.9477
 40
23.9477
 40
23.9477
 10
112.5
 20
51.2019
 30
4
 10
112.5
 20
51.1362
 30
4.00025
 10
112.5
 20
51.0756
 30
4.03082
 10
112.5
 20
50.969
 30
4.09899
  0
SPLINE
  5
A65
330
A02
100
AcDbEntity
  8
Body
100
AcDbSpline
210
0
220
0
230
1
 70
8
 71
3
 72
11
 73
7
 74
0
 40
0
 40
0
 40
0
 40
0
 40
0.289361
 40
0.289361
 40
0.289361
 40
0.578721
 40
0.578721
 40
0.578721
 40
0.578721
 10
111.5
 20
50.5352
 30
5
 10
111.734
 20
50.5338
 30
5.00289
 10
112.012
 20
50.576
 30
4.91532
 10
112.207
 20
50.6622
 30
4.7361
 10
112.406
 20
50.747
 30
4.55999
 10
112.503
 20
50.8673
 30
4.31027
 10
112.5
 20
50.969
 30
4.09899
  0
SPLINE
  5
A66
330
A02
100
AcDbEntity
  8
Body
100
AcDbSpline
210
0
220
0
230
1
 70
8
 71
3
 72
11
 73
7
 74
0
 40
0
 40
0
 40
0
 40
0
 40
0.577122
 40
0.577122
 40
0.577122
 40
1.15424
 40
1.15424
 40
1.15424
 40
1.15424
 10
-111.5
 20
50.5352
 30
5
 10
-111.734
 20
50.5338
 30
5.00289
 10
-112.012
 20
50.576
 30
4.91532
 10
-112.207
 20
50.6622
 30
4.7361
 10
-112.406
 20
50.747
 30
4.55999
 10
-112.503
 20
50.8673
 30
4.31027
 10
-112.5
 20
50.969
 30
4.09899
  0
SPLINE
  5
A67
330
A02
100
AcDbEntity
  8
Body
100
AcDbSpline
210
0
220
0
230
1
 70
8
 71
3
 72
8
 73
4
 74
0
 40
5.15424
 40
5.15424
 40
5.15424
 40
5.15424
 40
5.73296
 40
5.73296
 40
5.73296
 40
5.73296
 10
-111.5
 20
50.5352
 30
5
 10
-111.5
 20
50.784
 30
5
 10
-111.5
 20
50.9909
 30
5
 10
-111.5
 20
51.2019
 30
5
  0
SPLINE
  5
A68
330
A02
100
AcDbEntity
  8
Body
100
AcDbSpline
210
0
220
0
230
1
 70
8
 71
3
 72
8
 73
4
 74
0
 40
5.15424
 40
5.15424
 40
5.15424
 40
5.15424
 40
5.73296
 40
5.73296
 40
5.73296
 40
5.73296
 10
-112.5
 20
50.969
 30
4.09899
 10
-112.5
 20
51.0756
 30
4.03082
 10
-112.5
 20
51.1362
 30
4.00025
 10
-112.5
 20
51.2019
 30
4
  0
SPLINE
  5
A69
330
A02
100
AcDbEntity
  8
Body
100
AcDbSpline
210
0
220
0
230
1
 70
8
 71
3
 72
11
 73
7
 74
0
 40
0
 40
0
 40
0
 40
0
 40
0.289361
 40
0.289361
 40
0.289361
 40
0.578721
 40
0.578721
 40
0.578721
 40
0.578721
 10
-111.5
 20
51.2019
 30
5
 10
-111.734
 20
51.2019
 30
5.00321
 10
-112.012
 20
51.2019
 30
4.90601
 10
-112.207
 20
51.2019
 30
4.70711
 10
-112.406
 20
51.2019
 30
4.51165
 10
-112.503
 20
51.2019
 30
4.23449
 10
-112.5
 20
51.2019
 30
4
  0
ARC
  5
A6A
330
A02
100
AcDbEntity
  8
Body
100
AcDbCircle
 10
111.5
 20
69
 30
4
 40
0
100
AcDbArc
 50
0
 51
0
  0
LINE
  5
A6B
330
A02
100
AcDbEntity
  8
Body
100
AcDbLine
 10
111.5
 20
69
 30
5
 11
111.5
 21
51.2019
 31
5
  0
LINE
  5
A6C
330
A02
100
AcDbEntity
  8
Body
100
AcDbLine
 10
112.5
 20
69
 30
4
 11
112.5
 21
51.2019
 31
4
  0
ARC
  5
A6D
330
A02
100
AcDbEntity
  8
Body
100
AcDbCircle
 10
111.5
 20
51.2019
 30
4
 40
0
100
AcDbArc
 50
0
 51
0
  0
SPLINE
  5
A6E
330
A02
100
AcDbEntity
  8
Body
100
AcDbSpline
210
0
220
0
230
1
 70
8
 71
3
 72
11
 73
7
 74
0
 40
0
 40
0
 40
0
 40
0
 40
0.289361
 40
0.289361
 40
0.289361
 40
0.578721
 40
0.578721
 40
0.578721
 40
0.578721
 10
-111.5
 20
51.2019
 30
5
 10
-111.734
 20
51.2019
 30
5.00321
 10
-112.012
 20
51.2019
 30
4.90601
 10
-112.207
 20
51.2019
 30
4.70711
 10
-112.406
 20
51.2019
 30
4.51165
 10
-112.503
 20
51.2019
 30
4.23449
 10
-112.5
 20
51.2019
 30
4
  0
LINE
  5
A6F
330
A02
100
AcDbEntity
  8
Body
100
AcDbLine
 10
-111.5
 20
51.2019
 30
5
 11
-111.5
 21
69
 31
5
  0
LINE
  5
A70
330
A02
100
AcDbEntity
  8
Body
100
AcDbLine
 10
-112.5
 20
51.2019
 30
4
 11
-112.5
 21
69
 31
4
  0
ARC
  5
A71
330
A02
100
AcDbEntity
  8
Body
100
AcDbCircle
 10
-111.5
 20
69
 30
4
 40
0
100
AcDbArc
 50
180
 51
0
  0
LINE
  5
A72
330
A02
100
AcDbEntity
  8
Body
100
AcDbLine
 10
-111.5
 20
69
 30
5
 11
111.5
 21
69
 31
5
  0
ARC
  5
A73
330
A02
100
AcDbEntity
  8
Body
100
AcDbCircle
 10
111.5
 20
69
 30
4
 40
1
100
AcDbArc
 50
0
 51
90
  0
ARC
  5
A74
330
A02
100
AcDbEntity
  8
Body
100
AcDbCircle
 10
-111.5
 20
69
 30
4
 40
0
100
AcDbArc
 50
90
 51
0
  0
LINE
  5
A75
330
A02
100
AcDbEntity
  8
Body
100
AcDbLine
 10
-111.5
 20
70
 30
4
 11
111.5
 21
70
 31
4
  0
LINE
  5
A76
330
A02
100
AcDbEntity
  8
Body
100
AcDbLine
 10
-73
 20
-65
 30
5
 11
-73
 21
-65
 31
0
  0
LINE
  5
A77
330
A02
100
AcDbEntity
  8
Body
100
AcDbLine
 10
-73
 20
-65
 30
5
 11
-73
 21
-65
 31
0
  0
CIRCLE
  5
A78
330
A02
100
AcDbEntity
  8
Body
100
AcDbCircle
 10
-75
 20
-65
 40
2
  0
CIRCLE
  5
A79
330
A02
100
AcDbEntity
  8
Body
100
AcDbCircle
 10
-75
 20
-65
 40
2
  0
LINE
  5
A7A
330
A02
100
AcDbEntity
  8
Body
100
AcDbLine
 10
-73
 20
-53
 30
5
 11
-73
 21
-53
 31
0
  0
LINE
  5
A7B
330
A02
100
AcDbEntity
  8
Body
100
AcDbLine
 10
-73
 20
-53
 30
5
 11
-73
 21
-53
 31
0
  0
CIRCLE
  5
A7C
330
A02
100
AcDbEntity
  8
Body
100
AcDbCircle
 10
-75
 20
-53
 40
2
  0
CIRCLE
  5
A7D
330
A02
100
AcDbEntity
  8
Body
100
AcDbCircle
 10
-75
 20
-53
 40
2
  0
LINE
  5
A7E
330
A02
100
AcDbEntity
  8
Body
100
AcDbLine
 10
-43
 20
-65
 30
5
 11
-43
 21
-65
 31
0
  0
LINE
  5
A7F
330
A02
100
AcDbEntity
  8
Body
100
AcDbLine
 10
-43
 20
-65
 30
5
 11
-43
 21
-65
 31
0
  0
CIRCLE
  5
A80
330
A02
100
AcDbEntity
  8
Body
100
AcDbCircle
 10
-45
 20
-65
 40
2
  0
CIRCLE
  5
A81
330
A02
100
AcDbEntity
  8
Body
100
AcDbCircle
 10
-45
 20
-65
 40
2
  0
LINE
  5
A82
330
A02
100
AcDbEntity
  8
Body
100
AcDbLine
 10
-43
 20
-53
 30
5
 11
-43
 21
-53
 31
0
  0
LINE
  5
A83
330
A02
100
AcDbEntity
  8
Body
100
AcDbLine
 10
-43
 20
-53
 30
5
 11
-43
 21
-53
 31
0
  0
CIRCLE
  5
A84
330
A02
100
AcDbEntity
  8
Body
100
AcDbCircle
 10
-45
 20
-53
 40
2
  0
CIRCLE
  5
A85
330
A02
100
AcDbEntity
  8
Body
100
AcDbCircle
 10
-45
 20
-53
 40
2
  0
LINE
  5
A86
330
A02
100
AcDbEntity
  8
Body
100
AcDbLine
 10
47
 20
-65
 30
5
 11
47
 21
-65
 31
0
  0
LINE
  5
A87
330
A02
100
AcDbEntity
  8
Body
100
AcDbLine
 10
47
 20
-65
 30
5
 11
47
 21
-65
 31
0
  0
CIRCLE
  5
A88
330
A02
100
AcDbEntity
  8
Body
100
AcDbCircle
 10
45
 20
-65
 40
2
  0
CIRCLE
  5
A89
330
A02
100
AcDbEntity
  8
Body
100
AcDbCircle
 10
45
 20
-65
 40
2
  0
LINE
  5
A8A
330
A02
100
AcDbEntity
  8
Body
100
AcDbLine
 10
47
 20
-53
 30
5
 11
47
 21
-53
 31
0
  0
LINE
  5
A8B
330
A02
100
AcDbEntity
  8
Body
100
AcDbLine
 10
47
 20
-53
 30
5
 11
47
 21
-53
 31
0
  0
CIRCLE
  5
A8C
330
A02
100
AcDbEntity
  8
Body
100
AcDbCircle
 10
45
 20
-53
 40
2
  0
CIRCLE
  5
A8D
330
A02
100
AcDbEntity
  8
Body
100
AcDbCircle
 10
45
 20
-53
 40
2
  0
LINE
  5
A8E
330
A02
100
AcDbEntity
  8
Body
100
AcDbLine
 10
77
 20
-65
 30
5
 11
77
 21
-65
 31
0
  0
LINE
  5
A8F
330
A02
100
AcDbEntity
  8
Body
100
AcDbLine
 10
77
 20
-65
 30
5
 11
77
 21
-65
 31
0
  0
CIRCLE
  5
A90
330
A02
100
AcDbEntity
  8
Body
100
AcDbCircle
 10
75
 20
-65
 40
2
  0
CIRCLE
  5
A91
330
A02
100
AcDbEntity
  8
Body
100
AcDbCircle
 10
75
 20
-65
 40
2
  0
LINE
  5
A92
330
A02
100
AcDbEntity
  8
Body
100
AcDbLine
 10
77
 20
-53
 30
5
 11
77
 21
-53
 31
0
  0
LINE
  5
A93
330
A02
100
AcDbEntity
  8
Body
100
AcDbLine
 10
77
 20
-53
 30
5
 11
77
 21
-53
 31
0
  0
CIRCLE
  5
A94
330
A02
100
AcDbEntity
  8
Body
100
AcDbCircle
 10
75
 20
-53
 40
2
  0
CIRCLE
  5
A95
330
A02
100
AcDbEntity
  8
Body
100
AcDbCircle
 10
75
 20
-53
 40
2
  0
LINE
  5
A96
330
A02
100
AcDbEntity
  8
Body
100
AcDbLine
 10
-73
 20
53
 30
5
 11
-73
 21
53
 31
0
  0
LINE
  5
A97
330
A02
100
AcDbEntity
  8
Body
100
AcDbLine
 10
-73
 20
53
 30
5
 11
-73
 21
53
 31
0
  0
CIRCLE
  5
A98
330
A02
100
AcDbEntity
  8
Body
100
AcDbCircle
 10
-75
 20
53
 40
2
  0
CIRCLE
  5
A99
330
A02
100
AcDbEntity
  8
Body
100
AcDbCircle
 10
-75
 20
53
 40
2
  0
LINE
  5
A9A
330
A02
100
AcDbEntity
  8
Body
100
AcDbLine
 10
-73
 20
65
 30
5
 11
-73
 21
65
 31
0
  0
LINE
  5
A9B
330
A02
100
AcDbEntity
  8
Body
100
AcDbLine
 10
-73
 20
65
 30
5
 11
-73
 21
65
 31
0
  0
CIRCLE
  5
A9C
330
A02
100
AcDbEntity
  8
Body
100
AcDbCircle
 10
-75
 20
65
 40
2
  0
CIRCLE
  5
A9D
330
A02
100
AcDbEntity
  8
Body
100
AcDbCircle
 10
-75
 20
65
 40
2
  0
LINE
  5
A9E
330
A02
100
AcDbEntity
  8
Body
100
AcDbLine
 10
-43
 20
53
 30
5
 11
-43
 21
53
 31
0
  0
LINE
  5
A9F
330
A02
100
AcDbEntity
  8
Body
100
AcDbLine
 10
-43
 20
53
 30
5
 11
-43
 21
53
 31
0
  0
CIRCLE
  5
AA0
330
A02
100
AcDbEntity
  8
Body
100
AcDbCircle
 10
-45
 20
53
 40
2
  0
CIRCLE
  5
AA1
330
A02
100
AcDbEntity
  8
Body
100
AcDbCircle
 10
-45
 20
53
 40
2
  0
LINE
  5
AA2
330
A02
100
AcDbEntity
  8
Body
100
AcDbLine
 10
-43
 20
65
 30
5
 11
-43
 21
65
 31
0
  0
LINE
  5
AA3
330
A02
100
AcDbEntity
  8
Body
100
AcDbLine
 10
-43
 20
65
 30
5
 11
-43
 21
65
 31
0
  0
CIRCLE
  5
AA4
330
A02
100
AcDbEntity
  8
Body
100
AcDbCircle
 10
-45
 20
65
 40
2
  0
CIRCLE
  5
AA5
330
A02
100
AcDbEntity
  8
Body
100
AcDbCircle
 10
-45
 20
65
 40
2
  0
LINE
  5
AA6
330
A02
100
AcDbEntity
  8
Body
100
AcDbLine
 10
47
 20
53
 30
5
 11
47
 21
53
 31
0
  0
LINE
  5
AA7
330
A02
100
AcDbEntity
  8
Body
100
AcDbLine
 10
47
 20
53
 30
5
 11
47
 21
53
 31
0
  0
CIRCLE
  5
AA8
330
A02
100
AcDbEntity
  8
Body
100
AcDbCircle
 10
45
 20
53
 40
2
  0
CIRCLE
  5
AA9
330
A02
100
AcDbEntity
  8
Body
100
AcDbCircle
 10
45
 20
53
 40
2
  0
LINE
  5
AAA
330
A02
100
AcDbEntity
  8
Body
100
AcDbLine
 10
47
 20
65
 30
5
 11
47
 21
65
 31
0
  0
LINE
  5
AAB
330
A02
100
AcDbEntity
  8
Body
100
AcDbLine
 10
47
 20
65
 30
5
 11
47
 21
65
 31
0
  0
CIRCLE
  5
AAC
330
A02
100
AcDbEntity
  8
Body
100
AcDbCircle
 10
45
 20
65
 40
2
  0
CIRCLE
  5
AAD
330
A02
100
AcDbEntity
  8
Body
100
AcDbCircle
 10
45
 20
65
 40
2
  0
LINE
  5
AAE
330
A02
100
AcDbEntity
  8
Body
100
AcDbLine
 10
77
 20
53
 30
5
 11
77
 21
53
 31
0
  0
LINE
  5
AAF
330
A02
100
AcDbEntity
  8
Body
100
AcDbLine
 10
77
 20
53
 30
5
 11
77
 21
53
 31
0
  0
CIRCLE
  5
AB0
330
A02
100
AcDbEntity
  8
Body
100
AcDbCircle
 10
75
 20
53
 40
2
  0
CIRCLE
  5
AB1
330
A02
100
AcDbEntity
  8
Body
100
AcDbCircle
 10
75
 20
53
 40
2
  0
LINE
  5
AB2
330
A02
100
AcDbEntity
  8
Body
100
AcDbLine
 10
77
 20
65
 30
5
 11
77
 21
65
 31
0
  0
LINE
  5
AB3
330
A02
100
AcDbEntity
  8
Body
100
AcDbLine
 10
77
 20
65
 30
5
 11
77
 21
65
 31
0
  0
CIRCLE
  5
AB4
330
A02
100
AcDbEntity
  8
Body
100
AcDbCircle
 10
75
 20
65
 40
2
  0
CIRCLE
  5
AB5
330
A02
100
AcDbEntity
  8
Body
100
AcDbCircle
 10
75
 20
65
 40
2
  0
SPLINE
  5
AB6
330
A02
100
AcDbEntity
  8
Body
100
AcDbSpline
210
0
220
0
230
1
 70
8
 71
3
 72
11
 73
7
 74
0
 40
0
 40
0
 40
0
 40
0
 40
9.142
 40
9.142
 40
9.142
 40
18.284
 40
18.284
 40
18.284
 40
18.284
 10
111.5
 20
-69
 30
5
 10
111.734
 20
-69
 30
5.00321
 10
112.012
 20
-69
 30
4.90601
 10
112.207
 20
-69
 30
4.70711
 10
112.406
 20
-69
 30
4.51165
 10
112.503
 20
-69
 30
4.23449
 10
112.5
 20
-69
 30
4
  0
ARC
  5
AB7
330
A02
100
AcDbEntity
  8
Body
100
AcDbCircle
 10
111.5
 20
-69
 30
4
 40
0
100
AcDbArc
 50
-90
 51
0
  0
ARC
  5
AB8
330
A02
100
AcDbEntity
  8
Body
100
AcDbCircle
 10
111.5
 20
-69
 30
4
 40
1
100
AcDbArc
 50
-90
 51
0
  0
ARC
  5
AB9
330
A02
100
AcDbEntity
  8
Body
100
AcDbCircle
 10
-111.5
 20
-69
 30
4
 40
1
100
AcDbArc
 50
180
 51
-90
  0
ARC
  5
ABA
330
A02
100
AcDbEntity
  8
Body
100
AcDbCircle
 10
-111.5
 20
-69
 30
4
 40
1
100
AcDbArc
 50
0
 51
-90
  0
ARC
  5
ABB
330
A02
100
AcDbEntity
  8
Body
100
AcDbCircle
 10
-111.5
 20
-69
 30
4
 40
0
100
AcDbArc
 50
180
 51
0
  0
LINE
  5
ABC
330
A02
100
AcDbEntity
  8
Body
100
AcDbLine
 10
111.5
 20
-70
 30
4
 11
-111.5
 21
-70
 31
4
  0
LINE
  5
ABD
330
A02
100
AcDbEntity
  8
Body
100
AcDbLine
 10
111.5
 20
-70
 30
4
 11
111.5
 21
-70
 31
0
  0
LINE
  5
ABE
330
A02
100
AcDbEntity
  8
Body
100
AcDbLine
 10
-111.5
 20
-70
 30
0
 11
-111.5
 21
-70
 31
4
  0
LINE
  5
ABF
330
A02
100
AcDbEntity
  8
Body
100
AcDbLine
 10
111.5
 20
-70
 30
0
 11
-111.5
 21
-70
 31
0
  0
ARC
  5
AC0
330
A02
100
AcDbEntity
  8
Body
100
AcDbCircle
 10
111.5
 20
-50.5352
 30
4
 40
1
100
AcDbArc
 50
0
 51
56.3099
  0
SPLINE
  5
AC1
330
A02
100
AcDbEntity
  8
Body
100
AcDbSpline
210
0
220
0
230
1
 70
8
 71
3
 72
11
 73
7
 74
0
 40
4
 40
4
 40
4
 40
4
 40
4.62356
 40
4.62356
 40
4.62356
 40
5.24711
 40
5.24711
 40
5.24711
 40
5.24711
 10
112.055
 20
-49.7031
 30
4
 10
112.055
 20
-49.703
 30
4.23594
 10
112.012
 20
-49.7753
 30
4.47481
 10
111.922
 20
-49.92
 30
4.66618
 10
111.831
 20
-50.0629
 30
4.85598
 10
111.692
 20
-50.2845
 30
4.99907
 10
111.5
 20
-50.5352
 30
5
  0
SPLINE
  5
AC2
330
A02
100
AcDbEntity
  8
Body
100
AcDbSpline
210
0
220
0
230
1
 70
8
 71
3
 72
11
 73
7
 74
0
 40
4
 40
4
 40
4
 40
4
 40
4.62356
 40
4.62356
 40
4.62356
 40
5.24711
 40
5.24711
 40
5.24711
 40
5.24711
 10
112.5
 20
-50.5352
 30
4
 10
112.5
 20
-50.5346
 30
4.06234
 10
112.5
 20
-50.5833
 30
4.1239
 10
112.5
 20
-50.6653
 30
4.14971
 10
112.5
 20
-50.7463
 30
4.17606
 10
112.5
 20
-50.8604
 30
4.16574
 10
112.5
 20
-50.9619
 30
4.09564
  0
SPLINE
  5
AC3
330
A02
100
AcDbEntity
  8
Body
100
AcDbSpline
210
0
220
0
230
1
 70
8
 71
3
 72
11
 73
7
 74
0
 40
0
 40
0
 40
0
 40
0
 40
0.623556
 40
0.623556
 40
0.623556
 40
1.24711
 40
1.24711
 40
1.24711
 40
1.24711
 10
111.5
 20
-50.5352
 30
5
 10
111.734
 20
-50.5338
 30
5.00291
 10
112.012
 20
-50.5753
 30
4.915
 10
112.207
 20
-50.6602
 30
4.73512
 10
112.406
 20
-50.7436
 30
4.55835
 10
112.503
 20
-50.8619
 30
4.30771
 10
112.5
 20
-50.9619
 30
4.09564
  0
LINE
  5
AC4
330
A02
100
AcDbEntity
  8
Body
100
AcDbLine
 10
112.5
 20
-50.5352
 30
0
 11
112.5
 21
-69
 31
0
  0
LINE
  5
AC5
330
A02
100
AcDbEntity
  8
Body
100
AcDbLine
 10
112.5
 20
-50.5352
 30
0
 11
112.5
 21
-50.5352
 31
4
  0
LINE
  5
AC6
330
A02
100
AcDbEntity
  8
Body
100
AcDbLine
 10
112.5
 20
-69
 30
4
 11
112.5
 21
-69
 31
0
  0
SPLINE
  5
AC7
330
A02
100
AcDbEntity
  8
Body
100
AcDbSpline
210
0
220
0
230
1
 70
8
 71
3
 72
11
 73
7
 74
0
 40
4
 40
4
 40
4
 40
4
 40
4.62356
 40
4.62356
 40
4.62356
 40
5.24711
 40
5.24711
 40
5.24711
 40
5.24711
 10
112.5
 20
-50.5352
 30
4
 10
112.5
 20
-50.5346
 30
4.06234
 10
112.5
 20
-50.5833
 30
4.1239
 10
112.5
 20
-50.6653
 30
4.14971
 10
112.5
 20
-50.7463
 30
4.17606
 10
112.5
 20
-50.8604
 30
4.16574
 10
112.5
 20
-50.9619
 30
4.09564
  0
SPLINE
  5
AC8
330
A02
100
AcDbEntity
  8
Body
100
AcDbSpline
210
0
220
0
230
1
 70
8
 71
3
 72
20
 73
16
 74
0
 40
5.24711
 40
5.24711
 40
5.24711
 40
5.24711
 40
5.56006
 40
5.56006
 40
5.56006
 40
5.873
 40
5.873
 40
5.873
 40
10.2875
 40
10.2875
 40
10.2875
 40
14.7021
 40
14.7021
 40
14.7021
 40
23.5311
 40
23.5311
 40
23.5311
 40
23.5311
 10
112.5
 20
-50.9619
 30
4.09564
 10
112.5
 20
-51.013
 30
4.06068
 10
112.5
 20
-51.0485
 30
4.0362
 10
112.5
 20
-51.0897
 30
4.0219
 10
112.5
 20
-51.132
 30
4.00747
 10
112.5
 20
-51.1776
 30
4.00329
 10
112.5
 20
-51.2755
 30
4.00272
 10
112.5
 20
-52.6676
 30
3.9976
 10
112.5
 20
-54.1537
 30
4.00105
 10
112.5
 20
-55.6381
 30
4.00008
 10
112.5
 20
-57.1259
 30
4.00003
 10
112.5
 20
-58.6129
 30
4
 10
112.5
 20
-60.0988
 30
4
 10
112.5
 20
-63.0673
 30
4
 10
112.5
 20
-66.0344
 30
4
 10
112.5
 20
-69
 30
4
  0
LINE
  5
AC9
330
A02
100
AcDbEntity
  8
Body
100
AcDbLine
 10
-112.5
 20
-69
 30
0
 11
-112.5
 21
-50.5352
 31
0
  0
LINE
  5
ACA
330
A02
100
AcDbEntity
  8
Body
100
AcDbLine
 10
-112.5
 20
-69
 30
0
 11
-112.5
 21
-69
 31
4
  0
LINE
  5
ACB
330
A02
100
AcDbEntity
  8
Body
100
AcDbLine
 10
-112.5
 20
-50.5352
 30
4
 11
-112.5
 21
-50.5352
 31
0
  0
SPLINE
  5
ACC
330
A02
100
AcDbEntity
  8
Body
100
AcDbSpline
210
0
220
0
230
1
 70
8
 71
3
 72
20
 73
16
 74
0
 40
5.5708
 40
5.5708
 40
5.5708
 40
5.5708
 40
14.3999
 40
14.3999
 40
14.3999
 40
18.8144
 40
18.8144
 40
18.8144
 40
23.2289
 40
23.2289
 40
23.2289
 40
23.5419
 40
23.5419
 40
23.5419
 40
23.8548
 40
23.8548
 40
23.8548
 40
23.8548
 10
-112.5
 20
-69
 30
4
 10
-112.5
 20
-66.0344
 30
4
 10
-112.5
 20
-63.0673
 30
4
 10
-112.5
 20
-60.0988
 30
4
 10
-112.5
 20
-58.6129
 30
4
 10
-112.5
 20
-57.1259
 30
4.00003
 10
-112.5
 20
-55.6381
 30
4.00008
 10
-112.5
 20
-54.1537
 30
4.00105
 10
-112.5
 20
-52.6676
 30
3.9976
 10
-112.5
 20
-51.2755
 30
4.00272
 10
-112.5
 20
-51.1776
 30
4.00329
 10
-112.5
 20
-51.132
 30
4.00747
 10
-112.5
 20
-51.0897
 30
4.0219
 10
-112.5
 20
-51.0485
 30
4.0362
 10
-112.5
 20
-51.013
 30
4.06068
 10
-112.5
 20
-50.9619
 30
4.09564
  0
SPLINE
  5
ACD
330
A02
100
AcDbEntity
  8
Body
100
AcDbSpline
210
0
220
0
230
1
 70
8
 71
3
 72
11
 73
7
 74
0
 40
23.8548
 40
23.8548
 40
23.8548
 40
23.8548
 40
24.4784
 40
24.4784
 40
24.4784
 40
25.1019
 40
25.1019
 40
25.1019
 40
25.1019
 10
-112.5
 20
-50.9619
 30
4.09564
 10
-112.5
 20
-50.8604
 30
4.16574
 10
-112.5
 20
-50.7463
 30
4.17606
 10
-112.5
 20
-50.6653
 30
4.14971
 10
-112.5
 20
-50.5833
 30
4.1239
 10
-112.5
 20
-50.5346
 30
4.06234
 10
-112.5
 20
-50.5352
 30
4
  0
SPLINE
  5
ACE
330
A02
100
AcDbEntity
  8
Body
100
AcDbSpline
210
0
220
0
230
1
 70
8
 71
3
 72
11
 73
7
 74
0
 40
0
 40
0
 40
0
 40
0
 40
9.142
 40
9.142
 40
9.142
 40
18.284
 40
18.284
 40
18.284
 40
18.284
 10
-111.5
 20
-50.5352
 30
5
 10
-111.734
 20
-50.5338
 30
5.00291
 10
-112.012
 20
-50.5753
 30
4.915
 10
-112.207
 20
-50.6602
 30
4.73512
 10
-112.406
 20
-50.7436
 30
4.55835
 10
-112.503
 20
-50.8619
 30
4.30771
 10
-112.5
 20
-50.9619
 30
4.09564
  0
SPLINE
  5
ACF
330
A02
100
AcDbEntity
  8
Body
100
AcDbSpline
210
0
220
0
230
1
 70
8
 71
3
 72
11
 73
7
 74
0
 40
23.8548
 40
23.8548
 40
23.8548
 40
23.8548
 40
24.4784
 40
24.4784
 40
24.4784
 40
25.1019
 40
25.1019
 40
25.1019
 40
25.1019
 10
-111.5
 20
-50.5352
 30
5
 10
-111.692
 20
-50.2845
 30
4.99907
 10
-111.831
 20
-50.0629
 30
4.85598
 10
-111.922
 20
-49.92
 30
4.66618
 10
-112.012
 20
-49.7753
 30
4.47481
 10
-112.055
 20
-49.703
 30
4.23594
 10
-112.055
 20
-49.7031
 30
4
  0
SPLINE
  5
AD0
330
A02
100
AcDbEntity
  8
Body
100
AcDbSpline
210
0
220
0
230
1
 70
8
 71
3
 72
11
 73
7
 74
0
 40
23.8548
 40
23.8548
 40
23.8548
 40
23.8548
 40
24.4784
 40
24.4784
 40
24.4784
 40
25.1019
 40
25.1019
 40
25.1019
 40
25.1019
 10
-112.5
 20
-50.9619
 30
4.09564
 10
-112.5
 20
-50.8604
 30
4.16574
 10
-112.5
 20
-50.7463
 30
4.17606
 10
-112.5
 20
-50.6653
 30
4.14971
 10
-112.5
 20
-50.5833
 30
4.1239
 10
-112.5
 20
-50.5346
 30
4.06234
 10
-112.5
 20
-50.5352
 30
4
  0
SPLINE
  5
AD1
330
A02
100
AcDbEntity
  8
Body
100
AcDbSpline
210
0
220
0
230
1
 70
8
 71
3
 72
11
 73
7
 74
0
 40
0
 40
0
 40
0
 40
0
 40
0.623556
 40
0.623556
 40
0.623556
 40
1.24711
 40
1.24711
 40
1.24711
 40
1.24711
 10
-112.055
 20
-49.7031
 30
4
 10
-112.186
 20
-49.7899
 30
4
 10
-112.303
 20
-49.9155
 30
4
 10
-112.382
 20
-50.0633
 30
4
 10
-112.461
 20
-50.2107
 30
4
 10
-112.501
 20
-50.378
 30
4
 10
-112.5
 20
-50.5352
 30
4
  0
LINE
  5
AD2
330
A02
100
AcDbEntity
  8
Body
100
AcDbLine
 10
82.5
 20
-30
 30
4
 11
112.055
 21
-49.7031
 31
4
  0
LINE
  5
AD3
330
A02
100
AcDbEntity
  8
Body
100
AcDbLine
 10
112.055
 20
-49.7031
 30
0
 11
112.055
 21
-49.7031
 31
4
  0
LINE
  5
AD4
330
A02
100
AcDbEntity
  8
Body
100
AcDbLine
 10
82.5
 20
-30
 30
0
 11
82.5
 21
-30
 31
4
  0
LINE
  5
AD5
330
A02
100
AcDbEntity
  8
Body
100
AcDbLine
 10
82.5
 20
-30
 30
0
 11
112.055
 21
-49.7031
 31
0
  0
LINE
  5
AD6
330
A02
100
AcDbEntity
  8
Body
100
AcDbLine
 10
-112.055
 20
-49.7031
 30
4
 11
-82.5
 21
-30
 31
4
  0
LINE
  5
AD7
330
A02
100
AcDbEntity
  8
Body
100
AcDbLine
 10
-112.055
 20
-49.7031
 30
4
 11
-112.055
 21
-49.7031
 31
0
  0
LINE
  5
AD8
330
A02
100
AcDbEntity
  8
Body
100
AcDbLine
 10
-82.5
 20
-30
 30
0
 11
-82.5
 21
-30
 31
4
  0
LINE
  5
AD9
330
A02
100
AcDbEntity
  8
Body
100
AcDbLine
 10
-112.055
 20
-49.7031
 30
0
 11
-82.5
 21
-30
 31
0
  0
LINE
  5
ADA
330
A02
100
AcDbEntity
  8
Body
100
AcDbLine
 10
82.5
 20
-30
 30
0
 11
82.5
 21
-30
 31
4
  0
LINE
  5
ADB
330
A02
100
AcDbEntity
  8
Body
100
AcDbLine
 10
82.5
 20
30
 30
4
 11
82.5
 21
-30
 31
4
  0
LINE
  5
ADC
330
A02
100
AcDbEntity
  8
Body
100
AcDbLine
 10
82.5
 20
30
 30
0
 11
82.5
 21
-30
 31
0
  0
LINE
  5
ADD
330
A02
100
AcDbEntity
  8
Body
100
AcDbLine
 10
82.5
 20
30
 30
0
 11
82.5
 21
30
 31
4
  0
LINE
  5
ADE
330
A02
100
AcDbEntity
  8
Body
100
AcDbLine
 10
-82.5
 20
30
 30
0
 11
-82.5
 21
30
 31
4
  0
LINE
  5
ADF
330
A02
100
AcDbEntity
  8
Body
100
AcDbLine
 10
-82.5
 20
-30
 30
4
 11
-82.5
 21
30
 31
4
  0
LINE
  5
AE0
330
A02
100
AcDbEntity
  8
Body
100
AcDbLine
 10
-82.5
 20
-30
 30
0
 11
-82.5
 21
30
 31
0
  0
LINE
  5
AE1
330
A02
100
AcDbEntity
  8
Body
100
AcDbLine
 10
-82.5
 20
-30
 30
0
 11
-82.5
 21
-30
 31
4
  0
LINE
  5
AE2
330
A02
100
AcDbEntity
  8
Body
100
AcDbLine
 10
112.055
 20
49.7031
 30
4
 11
82.5
 21
30
 31
4
  0
LINE
  5
AE3
330
A02
100
AcDbEntity
  8
Body
100
AcDbLine
 10
112.055
 20
49.7031
 30
4
 11
112.055
 21
49.7031
 31
0
  0
LINE
  5
AE4
330
A02
100
AcDbEntity
  8
Body
100
AcDbLine
 10
82.5
 20
30
 30
0
 11
82.5
 21
30
 31
4
  0
LINE
  5
AE5
330
A02
100
AcDbEntity
  8
Body
100
AcDbLine
 10
112.055
 20
49.7031
 30
0
 11
82.5
 21
30
 31
0
  0
SPLINE
  5
AE6
330
A02
100
AcDbEntity
  8
Body
100
AcDbSpline
210
0
220
0
230
1
 70
8
 71
3
 72
11
 73
7
 74
0
 40
0
 40
0
 40
0
 40
0
 40
0.289361
 40
0.289361
 40
0.289361
 40
0.578721
 40
0.578721
 40
0.578721
 40
0.578721
 10
111.5
 20
50.5352
 30
5
 10
111.734
 20
50.5338
 30
5.00289
 10
112.012
 20
50.576
 30
4.91532
 10
112.207
 20
50.6622
 30
4.7361
 10
112.406
 20
50.747
 30
4.55999
 10
112.503
 20
50.8673
 30
4.31027
 10
112.5
 20
50.969
 30
4.09899
  0
SPLINE
  5
AE7
330
A02
100
AcDbEntity
  8
Body
100
AcDbSpline
210
0
220
0
230
1
 70
8
 71
3
 72
11
 73
7
 74
0
 40
23.9477
 40
23.9477
 40
23.9477
 40
23.9477
 40
24.5248
 40
24.5248
 40
24.5248
 40
25.1019
 40
25.1019
 40
25.1019
 40
25.1019
 10
111.5
 20
50.5352
 30
5
 10
111.693
 20
50.2843
 30
4.99888
 10
111.831
 20
50.0633
 30
4.85616
 10
111.922
 20
49.9201
 30
4.66635
 10
112.012
 20
49.7753
 30
4.47498
 10
112.055
 20
49.703
 30
4.23601
 10
112.055
 20
49.7031
 30
4
  0
SPLINE
  5
AE8
330
A02
100
AcDbEntity
  8
Body
100
AcDbSpline
210
0
220
0
230
1
 70
8
 71
3
 72
11
 73
7
 74
0
 40
23.9477
 40
23.9477
 40
23.9477
 40
23.9477
 40
24.5248
 40
24.5248
 40
24.5248
 40
25.1019
 40
25.1019
 40
25.1019
 40
25.1019
 10
112.5
 20
50.969
 30
4.09899
 10
112.5
 20
50.8608
 30
4.1672
 10
112.5
 20
50.7466
 30
4.17602
 10
112.5
 20
50.6654
 30
4.1498
 10
112.5
 20
50.5833
 30
4.12389
 10
112.5
 20
50.5347
 30
4.06238
 10
112.5
 20
50.5352
 30
4
  0
SPLINE
  5
AE9
330
A02
100
AcDbEntity
  8
Body
100
AcDbSpline
210
0
220
0
230
1
 70
8
 71
3
 72
11
 73
7
 74
0
 40
0
 40
0
 40
0
 40
0
 40
0.577122
 40
0.577122
 40
0.577122
 40
1.15424
 40
1.15424
 40
1.15424
 40
1.15424
 10
112.055
 20
49.7031
 30
4
 10
112.186
 20
49.7899
 30
4
 10
112.303
 20
49.9155
 30
4
 10
112.382
 20
50.0633
 30
4
 10
112.461
 20
50.2107
 30
4
 10
112.501
 20
50.378
 30
4
 10
112.5
 20
50.5352
 30
4
  0
ARC
  5
AEA
330
A02
100
AcDbEntity
  8
Body
100
AcDbCircle
 10
-111.5
 20
50.5352
 30
4
 40
1
100
AcDbArc
 50
180
 51
-123.69
  0
SPLINE
  5
AEB
330
A02
100
AcDbEntity
  8
Body
100
AcDbSpline
210
0
220
0
230
1
 70
8
 71
3
 72
11
 73
7
 74
0
 40
4
 40
4
 40
4
 40
4
 40
4.57712
 40
4.57712
 40
4.57712
 40
5.15424
 40
5.15424
 40
5.15424
 40
5.15424
 10
-112.055
 20
49.7031
 30
4
 10
-112.055
 20
49.703
 30
4.23601
 10
-112.012
 20
49.7753
 30
4.47498
 10
-111.922
 20
49.9201
 30
4.66635
 10
-111.831
 20
50.0633
 30
4.85616
 10
-111.693
 20
50.2843
 30
4.99888
 10
-111.5
 20
50.5352
 30
5
  0
SPLINE
  5
AEC
330
A02
100
AcDbEntity
  8
Body
100
AcDbSpline
210
0
220
0
230
1
 70
8
 71
3
 72
11
 73
7
 74
0
 40
4
 40
4
 40
4
 40
4
 40
4.57712
 40
4.57712
 40
4.57712
 40
5.15424
 40
5.15424
 40
5.15424
 40
5.15424
 10
-112.5
 20
50.5352
 30
4
 10
-112.5
 20
50.5347
 30
4.06238
 10
-112.5
 20
50.5833
 30
4.12389
 10
-112.5
 20
50.6654
 30
4.1498
 10
-112.5
 20
50.7466
 30
4.17602
 10
-112.5
 20
50.8608
 30
4.1672
 10
-112.5
 20
50.969
 30
4.09899
  0
SPLINE
  5
AED
330
A02
100
AcDbEntity
  8
Body
100
AcDbSpline
210
0
220
0
230
1
 70
8
 71
3
 72
11
 73
7
 74
0
 40
0
 40
0
 40
0
 40
0
 40
0.577122
 40
0.577122
 40
0.577122
 40
1.15424
 40
1.15424
 40
1.15424
 40
1.15424
 10
-111.5
 20
50.5352
 30
5
 10
-111.734
 20
50.5338
 30
5.00289
 10
-112.012
 20
50.576
 30
4.91532
 10
-112.207
 20
50.6622
 30
4.7361
 10
-112.406
 20
50.747
 30
4.55999
 10
-112.503
 20
50.8673
 30
4.31027
 10
-112.5
 20
50.969
 30
4.09899
  0
LINE
  5
AEE
330
A02
100
AcDbEntity
  8
Body
100
AcDbLine
 10
-82.5
 20
30
 30
4
 11
-112.055
 21
49.7031
 31
4
  0
LINE
  5
AEF
330
A02
100
AcDbEntity
  8
Body
100
AcDbLine
 10
-112.055
 20
49.7031
 30
0
 11
-112.055
 21
49.7031
 31
4
  0
LINE
  5
AF0
330
A02
100
AcDbEntity
  8
Body
100
AcDbLine
 10
-82.5
 20
30
 30
0
 11
-82.5
 21
30
 31
4
  0
LINE
  5
AF1
330
A02
100
AcDbEntity
  8
Body
100
AcDbLine
 10
-82.5
 20
30
 30
0
 11
-112.055
 21
49.7031
 31
0
  0
LINE
  5
AF2
330
A02
100
AcDbEntity
  8
Body
100
AcDbLine
 10
112.5
 20
69
 30
0
 11
112.5
 21
50.5352
 31
0
  0
LINE
  5
AF3
330
A02
100
AcDbEntity
  8
Body
100
AcDbLine
 10
112.5
 20
69
 30
0
 11
112.5
 21
69
 31
4
  0
LINE
  5
AF4
330
A02
100
AcDbEntity
  8
Body
100
AcDbLine
 10
112.5
 20
50.5352
 30
4
 11
112.5
 21
50.5352
 31
0
  0
LINE
  5
AF5
330
A02
100
AcDbEntity
  8
Body
100
AcDbLine
 10
112.5
 20
69
 30
4
 11
112.5
 21
51.2019
 31
4
  0
SPLINE
  5
AF6
330
A02
100
AcDbEntity
  8
Body
100
AcDbSpline
210
0
220
0
230
1
 70
8
 71
3
 72
11
 73
7
 74
0
 40
23.9477
 40
23.9477
 40
23.9477
 40
23.9477
 40
24.5248
 40
24.5248
 40
24.5248
 40
25.1019
 40
25.1019
 40
25.1019
 40
25.1019
 10
112.5
 20
50.969
 30
4.09899
 10
112.5
 20
50.8608
 30
4.1672
 10
112.5
 20
50.7466
 30
4.17602
 10
112.5
 20
50.6654
 30
4.1498
 10
112.5
 20
50.5833
 30
4.12389
 10
112.5
 20
50.5347
 30
4.06238
 10
112.5
 20
50.5352
 30
4
  0
SPLINE
  5
AF7
330
A02
100
AcDbEntity
  8
Body
100
AcDbSpline
210
0
220
0
230
1
 70
8
 71
3
 72
8
 73
4
 74
0
 40
23.3689
 40
23.3689
 40
23.3689
 40
23.3689
 40
23.9477
 40
23.9477
 40
23.9477
 40
23.9477
 10
112.5
 20
51.2019
 30
4
 10
112.5
 20
51.1362
 30
4.00025
 10
112.5
 20
51.0756
 30
4.03082
 10
112.5
 20
50.969
 30
4.09899
  0
LINE
  5
AF8
330
A02
100
AcDbEntity
  8
Body
100
AcDbLine
 10
-112.5
 20
50.5352
 30
0
 11
-112.5
 21
69
 31
0
  0
LINE
  5
AF9
330
A02
100
AcDbEntity
  8
Body
100
AcDbLine
 10
-112.5
 20
50.5352
 30
0
 11
-112.5
 21
50.5352
 31
4
  0
LINE
  5
AFA
330
A02
100
AcDbEntity
  8
Body
100
AcDbLine
 10
-112.5
 20
69
 30
4
 11
-112.5
 21
69
 31
0
  0
SPLINE
  5
AFB
330
A02
100
AcDbEntity
  8
Body
100
AcDbSpline
210
0
220
0
230
1
 70
8
 71
3
 72
11
 73
7
 74
0
 40
4
 40
4
 40
4
 40
4
 40
4.57712
 40
4.57712
 40
4.57712
 40
5.15424
 40
5.15424
 40
5.15424
 40
5.15424
 10
-112.5
 20
50.5352
 30
4
 10
-112.5
 20
50.5347
 30
4.06238
 10
-112.5
 20
50.5833
 30
4.12389
 10
-112.5
 20
50.6654
 30
4.1498
 10
-112.5
 20
50.7466
 30
4.17602
 10
-112.5
 20
50.8608
 30
4.1672
 10
-112.5
 20
50.969
 30
4.09899
  0
LINE
  5
AFC
330
A02
100
AcDbEntity
  8
Body
100
AcDbLine
 10
-112.5
 20
51.2019
 30
4
 11
-112.5
 21
69
 31
4
  0
SPLINE
  5
AFD
330
A02
100
AcDbEntity
  8
Body
100
AcDbSpline
210
0
220
0
230
1
 70
8
 71
3
 72
8
 73
4
 74
0
 40
5.15424
 40
5.15424
 40
5.15424
 40
5.15424
 40
5.73296
 40
5.73296
 40
5.73296
 40
5.73296
 10
-112.5
 20
50.969
 30
4.09899
 10
-112.5
 20
51.0756
 30
4.03082
 10
-112.5
 20
51.1362
 30
4.00025
 10
-112.5
 20
51.2019
 30
4
  0
ARC
  5
AFE
330
A02
100
AcDbEntity
  8
Body
100
AcDbCircle
 10
111.5
 20
69
 30
4
 40
1
100
AcDbArc
 50
0
 51
90
  0
ARC
  5
AFF
330
A02
100
AcDbEntity
  8
Body
100
AcDbCircle
 10
111.5
 20
69
 30
4
 40
1
100
AcDbArc
 50
0
 51
90
  0
ARC
  5
B00
330
A02
100
AcDbEntity
  8
Body
100
AcDbCircle
 10
111.5
 20
69
 30
4
 40
0
100
AcDbArc
 50
0
 51
0
  0
ARC
  5
B01
330
A02
100
AcDbEntity
  8
Body
100
AcDbCircle
 10
-111.5
 20
69
 30
4
 40
0
100
AcDbArc
 50
180
 51
0
  0
ARC
  5
B02
330
A02
100
AcDbEntity
  8
Body
100
AcDbCircle
 10
-111.5
 20
69
 30
4
 40
0
100
AcDbArc
 50
90
 51
0
  0
ARC
  5
B03
330
A02
100
AcDbEntity
  8
Body
100
AcDbCircle
 10
-111.5
 20
69
 30
4
 40
1
100
AcDbArc
 50
90
 51
180
  0
LINE
  5
B04
330
A02
100
AcDbEntity
  8
Body
100
AcDbLine
 10
-111.5
 20
70
 30
4
 11
111.5
 21
70
 31
4
  0
LINE
  5
B05
330
A02
100
AcDbEntity
  8
Body
100
AcDbLine
 10
111.5
 20
70
 30
0
 11
111.5
 21
70
 31
4
  0
LINE
  5
B06
330
A02
100
AcDbEntity
  8
Body
100
AcDbLine
 10
-111.5
 20
70
 30
4
 11
-111.5
 21
70
 31
0
  0
LINE
  5
B07
330
A02
100
AcDbEntity
  8
Body
100
AcDbLine
 10
-111.5
 20
70
 30
0
 11
111.5
 21
70
 31
0
  0
LINE
  5
B08
330
A02
100
AcDbEntity
  8
Body
100
AcDbLine
 10
111.5
 20
-70
 30
0
 11
-111.5
 21
-70
 31
0
  0
ARC
  5
B09
330
A02
100
AcDbEntity
  8
Body
100
AcDbCircle
 10
111.5
 20
-69
 30
0
 40
1
100
AcDbArc
 50
-90
 51
0
  0
ARC
  5
B0A
330
A02
100
AcDbEntity
  8
Body
100
AcDbCircle
 10
-111.5
 20
-69
 30
0
 40
1
100
AcDbArc
 50
180
 51
-90
  0
LINE
  5
B0B
330
A02
100
AcDbEntity
  8
Body
100
AcDbLine
 10
112.5
 20
-50.5352
 30
0
 11
112.5
 21
-69
 31
0
  0
LINE
  5
B0C
330
A02
100
AcDbEntity
  8
Body
100
AcDbLine
 10
-112.5
 20
-69
 30
0
 11
-112.5
 21
-50.5352
 31
0
  0
ARC
  5
B0D
330
A02
100
AcDbEntity
  8
Body
100
AcDbCircle
 10
111.5
 20
-50.5352
 30
0
 40
1
100
AcDbArc
 50
0
 51
56.3099
  0
ARC
  5
B0E
330
A02
100
AcDbEntity
  8
Body
100
AcDbCircle
 10
-111.5
 20
-50.5352
 30
0
 40
1
100
AcDbArc
 50
123.69
 51
180
  0
LINE
  5
B0F
330
A02
100
AcDbEntity
  8
Body
100
AcDbLine
 10
82.5
 20
-30
 30
0
 11
112.055
 21
-49.7031
 31
0
  0
LINE
  5
B10
330
A02
100
AcDbEntity
  8
Body
100
AcDbLine
 10
-112.055
 20
-49.7031
 30
0
 11
-82.5
 21
-30
 31
0
  0
LINE
  5
B11
330
A02
100
AcDbEntity
  8
Body
100
AcDbLine
 10
82.5
 20
30
 30
0
 11
82.5
 21
-30
 31
0
  0
LINE
  5
B12
330
A02
100
AcDbEntity
  8
Body
100
AcDbLine
 10
-82.5
 20
-30
 30
0
 11
-82.5
 21
30
 31
0
  0
LINE
  5
B13
330
A02
100
AcDbEntity
  8
Body
100
AcDbLine
 10
112.055
 20
49.7031
 30
0
 11
82.5
 21
30
 31
0
  0
LINE
  5
B14
330
A02
100
AcDbEntity
  8
Body
100
AcDbLine
 10
-82.5
 20
30
 30
0
 11
-112.055
 21
49.7031
 31
0
  0
ARC
  5
B15
330
A02
100
AcDbEntity
  8
Body
100
AcDbCircle
 10
111.5
 20
50.5352
 30
0
 40
1
100
AcDbArc
 50
-56.3099
 51
0
  0
ARC
  5
B16
330
A02
100
AcDbEntity
  8
Body
100
AcDbCircle
 10
-111.5
 20
50.5352
 30
0
 40
1
100
AcDbArc
 50
180
 51
-123.69
  0
LINE
  5
B17
330
A02
100
AcDbEntity
  8
Body
100
AcDbLine
 10
112.5
 20
69
 30
0
 11
112.5
 21
50.5352
 31
0
  0
LINE
  5
B18
330
A02
100
AcDbEntity
  8
Body
100
AcDbLine
 10
-112.5
 20
50.5352
 30
0
 11
-112.5
 21
69
 31
0
  0
ARC
  5
B19
330
A02
100
AcDbEntity
  8
Body
100
AcDbCircle
 10
111.5
 20
69
 30
0
 40
1
100
AcDbArc
 50
0
 51
90
  0
ARC
  5
B1A
330
A02
100
AcDbEntity
  8
Body
100
AcDbCircle
 10
-111.5
 20
69
 30
0
 40
1
100
AcDbArc
 50
90
 51
180
  0
LINE
  5
B1B
330
A02
100
AcDbEntity
  8
Body
100
AcDbLine
 10
-111.5
 20
70
 30
0
 11
111.5
 21
70
 31
0
  0
CIRCLE
  5
B1C
330
A02
100
AcDbEntity
  8
Body
100
AcDbCircle
 10
-75
 20
-65
 40
2
  0
CIRCLE
  5
B1D
330
A02
100
AcDbEntity
  8
Body
100
AcDbCircle
 10
-75
 20
-53
 40
2
  0
CIRCLE
  5
B1E
330
A02
100
AcDbEntity
  8
Body
100
AcDbCircle
 10
-45
 20
-65
 40
2
  0
CIRCLE
  5
B1F
330
A02
100
AcDbEntity
  8
Body
100
AcDbCircle
 10
-45
 20
-53
 40
2
  0
CIRCLE
  5
B20
330
A02
100
AcDbEntity
  8
Body
100
AcDbCircle
 10
45
 20
-65
 40
2
  0
CIRCLE
  5
B21
330
A02
100
AcDbEntity
  8
Body
100
AcDbCircle
 10
45
 20
-53
 40
2
  0
CIRCLE
  5
B22
330
A02
100
AcDbEntity
  8
Body
100
AcDbCircle
 10
75
 20
-65
 40
2
  0
CIRCLE
  5
B23
330
A02
100
AcDbEntity
  8
Body
100
AcDbCircle
 10
75
 20
-53
 40
2
  0
CIRCLE
  5
B24
330
A02
100
AcDbEntity
  8
Body
100
AcDbCircle
 10
-75
 20
53
 40
2
  0
CIRCLE
  5
B25
330
A02
100
AcDbEntity
  8
Body
100
AcDbCircle
 10
-75
 20
65
 40
2
  0
CIRCLE
  5
B26
330
A02
100
AcDbEntity
  8
Body
100
AcDbCircle
 10
-45
 20
53
 40
2
  0
CIRCLE
  5
B27
330
A02
100
AcDbEntity
  8
Body
100
AcDbCircle
 10
-45
 20
65
 40
2
  0
CIRCLE
  5
B28
330
A02
100
AcDbEntity
  8
Body
100
AcDbCircle
 10
45
 20
53
 40
2
  0
CIRCLE
  5
B29
330
A02
100
AcDbEntity
  8
Body
100
AcDbCircle
 10
45
 20
65
 40
2
  0
CIRCLE
  5
B2A
330
A02
100
AcDbEntity
  8
Body
100
AcDbCircle
 10
75
 20
53
 40
2
  0
CIRCLE
  5
B2B
330
A02
100
AcDbEntity
  8
Body
100
AcDbCircle
 10
75
 20
65
 40
2
  0
ARC
  5
B2C
330
A02
100
AcDbEntity
  8
Body
100
AcDbCircle
 10
111.5
 20
-69
 30
4
 40
1
100
AcDbArc
 50
-90
 51
0
  0
LINE
  5
B2D
330
A02
100
AcDbEntity
  8
Body
100
AcDbLine
 10
111.5
 20
-70
 30
4
 11
111.5
 21
-70
 31
0
  0
LINE
  5
B2E
330
A02
100
AcDbEntity
  8
Body
100
AcDbLine
 10
112.5
 20
-69
 30
4
 11
112.5
 21
-69
 31
0
  0
ARC
  5
B2F
330
A02
100
AcDbEntity
  8
Body
100
AcDbCircle
 10
111.5
 20
-69
 30
0
 40
1
100
AcDbArc
 50
-90
 51
0
  0
ARC
  5
B30
330
A02
100
AcDbEntity
  8
Body
100
AcDbCircle
 10
-111.5
 20
-69
 30
0
 40
1
100
AcDbArc
 50
180
 51
-90
  0
LINE
  5
B31
330
A02
100
AcDbEntity
  8
Body
100
AcDbLine
 10
-111.5
 20
-70
 30
0
 11
-111.5
 21
-70
 31
4
  0
LINE
  5
B32
330
A02
100
AcDbEntity
  8
Body
100
AcDbLine
 10
-112.5
 20
-69
 30
0
 11
-112.5
 21
-69
 31
4
  0
ARC
  5
B33
330
A02
100
AcDbEntity
  8
Body
100
AcDbCircle
 10
-111.5
 20
-69
 30
4
 40
1
100
AcDbArc
 50
180
 51
-90
  0
ARC
  5
B34
330
A02
100
AcDbEntity
  8
Body
100
AcDbCircle
 10
111.5
 20
-50.5352
 30
0
 40
1
100
AcDbArc
 50
0
 51
56.3099
  0
LINE
  5
B35
330
A02
100
AcDbEntity
  8
Body
100
AcDbLine
 10
112.055
 20
-49.7031
 30
0
 11
112.055
 21
-49.7031
 31
4
  0
LINE
  5
B36
330
A02
100
AcDbEntity
  8
Body
100
AcDbLine
 10
112.5
 20
-50.5352
 30
0
 11
112.5
 21
-50.5352
 31
4
  0
ARC
  5
B37
330
A02
100
AcDbEntity
  8
Body
100
AcDbCircle
 10
111.5
 20
-50.5352
 30
4
 40
1
100
AcDbArc
 50
0
 51
56.3099
  0
SPLINE
  5
B38
330
A02
100
AcDbEntity
  8
Body
100
AcDbSpline
210
0
220
0
230
1
 70
8
 71
3
 72
11
 73
7
 74
0
 40
0
 40
0
 40
0
 40
0
 40
0.623556
 40
0.623556
 40
0.623556
 40
1.24711
 40
1.24711
 40
1.24711
 40
1.24711
 10
-112.055
 20
-49.7031
 30
4
 10
-112.186
 20
-49.7899
 30
4
 10
-112.303
 20
-49.9155
 30
4
 10
-112.382
 20
-50.0633
 30
4
 10
-112.461
 20
-50.2107
 30
4
 10
-112.501
 20
-50.378
 30
4
 10
-112.5
 20
-50.5352
 30
4
  0
LINE
  5
B39
330
A02
100
AcDbEntity
  8
Body
100
AcDbLine
 10
-112.055
 20
-49.7031
 30
4
 11
-112.055
 21
-49.7031
 31
0
  0
LINE
  5
B3A
330
A02
100
AcDbEntity
  8
Body
100
AcDbLine
 10
-112.5
 20
-50.5352
 30
4
 11
-112.5
 21
-50.5352
 31
0
  0
ARC
  5
B3B
330
A02
100
AcDbEntity
  8
Body
100
AcDbCircle
 10
-111.5
 20
-50.5352
 30
0
 40
1
100
AcDbArc
 50
123.69
 51
180
  0
SPLINE
  5
B3C
330
A02
100
AcDbEntity
  8
Body
100
AcDbSpline
210
0
220
0
230
1
 70
8
 71
3
 72
11
 73
7
 74
0
 40
0
 40
0
 40
0
 40
0
 40
0.577122
 40
0.577122
 40
0.577122
 40
1.15424
 40
1.15424
 40
1.15424
 40
1.15424
 10
112.055
 20
49.7031
 30
4
 10
112.186
 20
49.7899
 30
4
 10
112.303
 20
49.9155
 30
4
 10
112.382
 20
50.0633
 30
4
 10
112.461
 20
50.2107
 30
4
 10
112.501
 20
50.378
 30
4
 10
112.5
 20
50.5352
 30
4
  0
LINE
  5
B3D
330
A02
100
AcDbEntity
  8
Body
100
AcDbLine
 10
112.055
 20
49.7031
 30
4
 11
112.055
 21
49.7031
 31
0
  0
LINE
  5
B3E
330
A02
100
AcDbEntity
  8
Body
100
AcDbLine
 10
112.5
 20
50.5352
 30
4
 11
112.5
 21
50.5352
 31
0
  0
ARC
  5
B3F
330
A02
100
AcDbEntity
  8
Body
100
AcDbCircle
 10
111.5
 20
50.5352
 30
0
 40
1
100
AcDbArc
 50
-56.3099
 51
0
  0
ARC
  5
B40
330
A02
100
AcDbEntity
  8
Body
100
AcDbCircle
 10
-111.5
 20
50.5352
 30
0
 40
1
100
AcDbArc
 50
180
 51
-123.69
  0
LINE
  5
B41
330
A02
100
AcDbEntity
  8
Body
100
AcDbLine
 10
-112.055
 20
49.7031
 30
0
 11
-112.055
 21
49.7031
 31
4
  0
LINE
  5
B42
330
A02
100
AcDbEntity
  8
Body
100
AcDbLine
 10
-112.5
 20
50.5352
 30
0
 11
-112.5
 21
50.5352
 31
4
  0
ARC
  5
B43
330
A02
100
AcDbEntity
  8
Body
100
AcDbCircle
 10
-111.5
 20
50.5352
 30
4
 40
1
100
AcDbArc
 50
180
 51
-123.69
  0
ARC
  5
B44
330
A02
100
AcDbEntity
  8
Body
100
AcDbCircle
 10
111.5
 20
69
 30
0
 40
1
100
AcDbArc
 50
0
 51
90
  0
LINE
  5
B45
330
A02
100
AcDbEntity
  8
Body
100
AcDbLine
 10
111.5
 20
70
 30
0
 11
111.5
 21
70
 31
4
  0
LINE
  5
B46
330
A02
100
AcDbEntity
  8
Body
100
AcDbLine
 10
112.5
 20
69
 30
0
 11
112.5
 21
69
 31
4
  0
ARC
  5
B47
330
A02
100
AcDbEntity
  8
Body
100
AcDbCircle
 10
111.5
 20
69
 30
4
 40
1
100
AcDbArc
 50
0
 51
90
  0
ARC
  5
B48
330
A02
100
AcDbEntity
  8
Body
100
AcDbCircle
 10
-111.5
 20
69
 30
4
 40
1
100
AcDbArc
 50
90
 51
180
  0
LINE
  5
B49
330
A02
100
AcDbEntity
  8
Body
100
AcDbLine
 10
-111.5
 20
70
 30
4
 11
-111.5
 21
70
 31
0
  0
LINE
  5
B4A
330
A02
100
AcDbEntity
  8
Body
100
AcDbLine
 10
-112.5
 20
69
 30
4
 11
-112.5
 21
69
 31
0
  0
ARC
  5
B4B
330
A02
100
AcDbEntity
  8
Body
100
AcDbCircle
 10
-111.5
 20
69
 30
0
 40
1
100
AcDbArc
 50
90
 51
180
  0
ENDSEC
  0
SECTION
  2
OBJECTS
  0
DICTIONARY
  5
F000
330
0
100
AcDbDictionary
  3
ACAD_GROUP
350
F001
  0
DICTIONARY
  5
F001
330
F000
100
AcDbDictionary
  0
ENDSEC
  0
EOF